<svg xmlns="http://www.w3.org/2000/svg" width="481pt" height="291pt" viewBox="0 0 481 291" version="1.1" xmlns:xlink="http://www.w3.org/1999/xlink">
  <g id="surface2" transform="matrix(1,0,0,1,0,0)" data-tpl_matrix="1,0,0,1,0,0">
    <path style="stroke:none;fill-rule:evenodd;fill:rgb(46.274510%,50.588235%,72.549020%);fill-opacity:1" d="M 240.5 52.25 C 254.101562 52.351562 266.75 55.050781 278.449219 60.351562 C 290.148438 65.617188 300.300781 72.917969 308.898438 82.25 C 317.535156 91.550781 324.035156 102.285156 328.398438 114.449219 L 341.050781 114.449219 C 336.515625 100.015625 329.351562 87.25 319.550781 76.148438 C 309.785156 65.015625 298.132812 56.285156 284.601562 49.949219 C 271.066406 43.617188 256.367188 40.382812 240.5 40.25 C 224.632812 40.382812 209.933594 43.617188 196.398438 49.949219 C 182.867188 56.285156 171.199219 65.015625 161.398438 76.148438 C 151.632812 87.25 144.484375 100.015625 139.949219 114.449219 L 152.601562 114.449219 C 156.964844 102.285156 163.449219 91.550781 172.050781 82.25 C 180.683594 72.917969 190.851562 65.617188 202.550781 60.351562 C 214.25 55.050781 226.898438 52.351562 240.5 52.25 M 315.148438 201.199219 L 329.699219 201.199219 C 323.433594 211.167969 315.75 219.851562 306.648438 227.25 C 297.515625 234.617188 287.351562 240.351562 276.148438 244.449219 C 264.949219 248.550781 253.066406 250.632812 240.5 250.699219 C 227.933594 250.632812 216.035156 248.550781 204.800781 244.449219 C 193.601562 240.351562 183.449219 234.617188 174.351562 227.25 C 165.25 219.851562 157.566406 211.167969 151.300781 201.199219 L 165.851562 201.199219 C 171.550781 208.832031 178.265625 215.433594 186 221 C 193.699219 226.601562 202.148438 230.933594 211.351562 234 C 220.582031 237.066406 230.300781 238.632812 240.5 238.699219 C 250.699219 238.667969 260.417969 237.101562 269.648438 234 C 278.851562 230.933594 287.300781 226.617188 295 221.050781 C 302.734375 215.449219 309.449219 208.832031 315.148438 201.199219 "/>
    <path style="stroke:none;fill-rule:evenodd;fill:rgb(89.803922%,12.941176%,15.686275%);fill-opacity:1" d="M 210.300781 107.25 C 209.367188 107.851562 208.851562 108.648438 208.75 109.648438 C 208.648438 110.648438 208.984375 111.484375 209.75 112.148438 C 210.515625 112.816406 211.75 112.964844 213.449219 112.601562 C 215.648438 112.035156 218.417969 111.867188 221.75 112.101562 C 225.082031 112.332031 228.433594 112.984375 231.800781 114.050781 C 235.132812 115.082031 237.898438 116.582031 240.101562 118.550781 C 238.832031 116.582031 236.964844 114.699219 234.5 112.898438 C 232.035156 111.101562 229.300781 109.582031 226.300781 108.351562 C 223.300781 107.082031 220.382812 106.316406 217.550781 106.050781 C 214.714844 105.785156 212.300781 106.183594 210.300781 107.25 M 260.398438 96.449219 C 261.398438 94.785156 261.75 93.082031 261.449219 91.351562 C 261.148438 89.648438 260.265625 88.300781 258.800781 87.300781 C 257.300781 86.398438 255.714844 86.199219 254.050781 86.699219 C 252.351562 87.167969 250.964844 88.214844 249.898438 89.851562 C 249.367188 90.75 248.648438 92.484375 247.75 95.050781 C 246.851562 97.617188 245.933594 100.398438 245 103.398438 C 244.066406 106.367188 243.285156 108.933594 242.648438 111.101562 C 242.015625 113.265625 241.683594 114.398438 241.648438 114.5 C 241.75 114.433594 242.632812 113.648438 244.300781 112.148438 C 245.964844 110.617188 247.949219 108.800781 250.25 106.699219 C 252.550781 104.566406 254.667969 102.550781 256.601562 100.648438 C 258.535156 98.714844 259.800781 97.316406 260.398438 96.449219 M 240.449219 79.800781 C 238.683594 79.832031 237.234375 80.5 236.101562 81.800781 C 234.933594 83.101562 234.316406 84.734375 234.25 86.699219 C 234.285156 87.734375 234.601562 89.582031 235.199219 92.25 C 235.832031 94.882812 236.550781 97.714844 237.351562 100.75 C 238.148438 103.75 238.867188 106.332031 239.5 108.5 C 240.101562 110.699219 240.417969 111.851562 240.449219 111.949219 C 240.484375 111.851562 240.800781 110.714844 241.398438 108.550781 C 242.035156 106.351562 242.75 103.75 243.550781 100.75 C 244.351562 97.714844 245.066406 94.882812 245.699219 92.25 C 246.300781 89.582031 246.617188 87.734375 246.648438 86.699219 C 246.617188 84.734375 246.015625 83.101562 244.851562 81.800781 C 243.683594 80.5 242.214844 79.832031 240.449219 79.800781 M 239.25 114.5 C 239.214844 114.398438 238.882812 113.265625 238.25 111.101562 C 237.617188 108.933594 236.832031 106.367188 235.898438 103.398438 C 234.964844 100.398438 234.050781 97.617188 233.148438 95.050781 C 232.285156 92.484375 231.566406 90.75 231 89.851562 C 229.933594 88.214844 228.566406 87.167969 226.898438 86.699219 C 225.199219 86.234375 223.601562 86.433594 222.101562 87.300781 C 220.632812 88.300781 219.765625 89.648438 219.5 91.351562 C 219.199219 93.082031 219.550781 94.785156 220.550781 96.449219 C 221.148438 97.316406 222.417969 98.714844 224.351562 100.648438 C 226.25 102.550781 228.351562 104.566406 230.648438 106.699219 C 232.949219 108.800781 234.933594 110.617188 236.601562 112.148438 C 238.300781 113.648438 239.183594 114.433594 239.25 114.5 M 267.449219 112.601562 C 265.25 112.035156 262.484375 111.867188 259.148438 112.101562 C 255.816406 112.332031 252.484375 112.984375 249.148438 114.050781 C 245.785156 115.082031 243 116.582031 240.800781 118.550781 C 242.066406 116.582031 243.933594 114.699219 246.398438 112.898438 C 248.867188 111.101562 251.601562 109.582031 254.601562 108.351562 C 257.601562 107.082031 260.515625 106.316406 263.351562 106.050781 C 266.214844 105.785156 268.648438 106.183594 270.648438 107.25 C 271.582031 107.851562 272.082031 108.648438 272.148438 109.648438 C 272.25 110.648438 271.917969 111.484375 271.148438 112.148438 C 270.382812 112.816406 269.148438 112.964844 267.449219 112.601562 M 240.449219 61.148438 C 228.515625 61.214844 217.398438 63.515625 207.101562 68.050781 C 196.765625 72.550781 187.734375 78.800781 180 86.800781 C 172.234375 94.765625 166.25 103.984375 162.050781 114.449219 C 161.117188 116.851562 160.285156 119.300781 159.550781 121.800781 L 124.148438 121.800781 L 124.148438 123.800781 L 161.050781 123.800781 C 161.917969 120.601562 162.964844 117.484375 164.199219 114.449219 C 168.367188 104.351562 174.234375 95.464844 181.800781 87.800781 C 189.332031 80.132812 198.101562 74.117188 208.101562 69.75 C 218.132812 65.417969 228.917969 63.214844 240.449219 63.148438 C 252.015625 63.214844 262.800781 65.417969 272.800781 69.75 C 282.800781 74.117188 291.582031 80.132812 299.148438 87.800781 C 306.683594 95.464844 312.535156 104.351562 316.699219 114.449219 C 317.933594 117.484375 319 120.601562 319.898438 123.800781 L 356.75 123.800781 L 356.75 121.800781 L 321.398438 121.800781 C 320.667969 119.300781 319.816406 116.851562 318.851562 114.449219 C 314.648438 103.984375 308.683594 94.75 300.949219 86.75 C 293.183594 78.785156 284.148438 72.550781 273.851562 68.050781 C 263.515625 63.515625 252.382812 61.214844 240.449219 61.148438 M 177.25 201.25 C 175.183594 198.917969 173.25 196.464844 171.449219 193.898438 L 124.148438 193.898438 L 124.148438 191.898438 L 172.5 191.898438 C 174.765625 195.199219 177.25 198.316406 179.949219 201.25 C 187.550781 209.484375 196.535156 215.949219 206.898438 220.648438 C 217.234375 225.351562 228.417969 227.75 240.449219 227.851562 C 252.484375 227.75 263.683594 225.351562 274.050781 220.648438 C 284.382812 215.949219 293.367188 209.484375 301 201.25 C 303.699219 198.316406 306.183594 195.199219 308.449219 191.898438 L 356.75 191.898438 L 356.75 193.898438 L 309.449219 193.898438 C 307.648438 196.464844 305.714844 198.917969 303.648438 201.25 C 295.816406 210.082031 286.5 217.035156 275.699219 222.101562 C 264.867188 227.167969 253.117188 229.75 240.449219 229.851562 C 227.785156 229.75 216.050781 227.167969 205.25 222.101562 C 194.417969 217.035156 185.082031 210.082031 177.25 201.25 "/>
    <path style="stroke:none;fill-rule:evenodd;fill:rgb(1.960784%,1.960784%,1.960784%);fill-opacity:1" d="M7.906250 0.312500Q6.343750 0.312500 5.148438-0.015625Q3.953125-0.343750 3.148438-0.929688Q2.343750-1.515625 1.937500-2.351563Q1.531250-3.187500 1.531250-4.187500Q1.531250-5.156250 2.132813-5.750000Q2.734375-6.343750 3.843750-6.343750Q3.890625-5.343750 4.148438-4.421875Q4.406250-3.500000 4.921875-2.796875Q5.437500-2.093750 6.234375-1.671875Q7.031250-1.250000 8.156250-1.250000Q10.312500-1.250000 11.523438-2.289063Q12.734375-3.328125 12.734375-5.281250Q12.734375-6.156250 12.484375-6.828125Q12.234375-7.500000 11.656250-8.070313Q11.078125-8.640625 10.132813-9.164063Q9.187500-9.687500 7.781250-10.265625Q6.296875-10.875000 5.187500-11.570313Q4.078125-12.265625 3.343750-13.117188Q2.609375-13.968750 2.250000-15.015625Q1.890625-16.062500 1.890625-17.375000Q1.890625-18.750000 2.414063-19.828125Q2.937500-20.906250 3.875000-21.648438Q4.812500-22.390625 6.093750-22.781250Q7.375000-23.171875 8.890625-23.171875Q10.328125-23.171875 11.437500-22.875000Q12.546875-22.578125 13.312500-22.078125Q14.078125-21.578125 14.476563-20.929688Q14.875000-20.281250 14.875000-19.578125Q14.875000-18.546875 14.195313-18.023438Q13.515625-17.500000 12.359375-17.500000Q12.359375-18.250000 12.179688-18.976563Q12-19.703125 11.578125-20.273438Q11.156250-20.843750 10.468750-21.203125Q9.781250-21.562500 8.765625-21.562500Q7.843750-21.562500 7.117188-21.304688Q6.390625-21.046875 5.890625-20.570313Q5.390625-20.093750 5.125000-19.421875Q4.859375-18.750000 4.859375-17.921875Q4.859375-16.968750 5.109375-16.242188Q5.359375-15.515625 5.945313-14.929688Q6.531250-14.343750 7.484375-13.820313Q8.437500-13.296875 9.828125-12.734375Q11.234375-12.156250 12.335938-11.515625Q13.437500-10.875000 14.203125-10.085938Q14.968750-9.296875 15.375000-8.320313Q15.781250-7.343750 15.781250-6.109375Q15.781250-4.593750 15.226563-3.398438Q14.671875-2.203125 13.640625-1.375000Q12.609375-0.546875 11.156250-0.117188Q9.703125 0.312500 7.906250 0.312500ZM28.156250-3.640625Q28.156250-2.890625 28.367188-2.437500Q28.578125-1.984375 28.929688-1.742188Q29.281250-1.500000 29.765625-1.421875Q30.250000-1.343750 30.781250-1.343750L31.515625-1.343750L31.515625 0L21.562500 0L21.562500-1.343750L22.296875-1.343750Q22.828125-1.343750 23.304688-1.414063Q23.781250-1.484375 24.140625-1.703125Q24.500000-1.921875 24.710938-2.351563Q24.921875-2.781250 24.921875-3.484375L24.921875-21.250000L21.859375-21.250000Q21.156250-21.250000 20.679688-21.039063Q20.203125-20.828125 19.898438-20.468750Q19.593750-20.109375 19.445313-19.632813Q19.296875-19.156250 19.234375-18.625000L19.062500-17.250000L17.406250-17.250000L17.562500-22.843750L35.578125-22.843750L35.734375-17.250000L34.078125-17.250000L33.921875-18.625000Q33.859375-19.156250 33.703125-19.632813Q33.546875-20.109375 33.250000-20.468750Q32.953125-20.828125 32.468750-21.039063Q31.984375-21.250000 31.265625-21.250000L28.156250-21.250000L28.156250-3.640625ZM43.859375-1.593750L50.031250-1.593750Q50.796875-1.593750 51.335938-1.804688Q51.875000-2.015625 52.234375-2.375000Q52.593750-2.734375 52.796875-3.210938Q53-3.687500 53.078125-4.218750L53.296875-5.593750L54.968750-5.593750L54.750000 0L37.593750 0L37.593750-1.343750L38-1.343750Q38.531250-1.343750 39.007813-1.414063Q39.484375-1.484375 39.843750-1.703125Q40.203125-1.921875 40.414063-2.351563Q40.625000-2.781250 40.625000-3.484375L40.625000-19.203125Q40.625000-19.953125 40.421875-20.406250Q40.218750-20.859375 39.859375-21.101563Q39.500000-21.343750 39.023438-21.421875Q38.546875-21.500000 38-21.500000L37.593750-21.500000L37.593750-22.843750L53.718750-22.843750L53.875000-17.250000L52.218750-17.250000L52.062500-18.625000Q52-19.156250 51.820313-19.632813Q51.640625-20.109375 51.304688-20.468750Q50.968750-20.828125 50.460938-21.039063Q49.953125-21.250000 49.234375-21.250000L43.859375-21.250000L43.859375-12.734375L51.578125-12.734375L51.578125-11.171875L43.859375-11.171875L43.859375-1.593750ZM63.796875-21.250000L63.796875-12L71.515625-12L71.515625-10.437500L63.796875-10.437500L63.796875-3.640625Q63.796875-2.890625 64.007813-2.437500Q64.218750-1.984375 64.570313-1.742188Q64.921875-1.500000 65.406250-1.421875Q65.890625-1.343750 66.421875-1.343750L67.484375-1.343750L67.484375 0L57.531250 0L57.531250-1.343750L57.937500-1.343750Q58.468750-1.343750 58.945313-1.414063Q59.421875-1.484375 59.781250-1.703125Q60.140625-1.921875 60.351563-2.351563Q60.562500-2.781250 60.562500-3.484375L60.562500-19.328125Q60.562500-20.031250 60.351563-20.460938Q60.140625-20.890625 59.781250-21.125000Q59.421875-21.359375 58.945313-21.429688Q58.468750-21.500000 57.937500-21.500000L57.531250-21.500000L57.531250-22.843750L73.656250-22.843750L73.812500-17.250000L72.156250-17.250000L72-18.625000Q71.937500-19.171875 71.750000-19.648438Q71.562500-20.125000 71.210938-20.476563Q70.859375-20.828125 70.328125-21.039063Q69.796875-21.250000 69.046875-21.250000L63.796875-21.250000ZM76.406250 0L76.406250-1.343750L76.812500-1.343750Q77.359375-1.343750 77.835938-1.421875Q78.312500-1.500000 78.671875-1.742188Q79.031250-1.984375 79.234375-2.437500Q79.437500-2.890625 79.437500-3.640625L79.437500-19.203125Q79.437500-19.953125 79.234375-20.406250Q79.031250-20.859375 78.671875-21.101563Q78.312500-21.343750 77.835938-21.421875Q77.359375-21.500000 76.812500-21.500000L76.406250-21.500000L76.406250-22.843750L85.718750-22.843750L85.718750-21.500000L85.296875-21.500000Q84.765625-21.500000 84.281250-21.421875Q83.796875-21.343750 83.445313-21.101563Q83.093750-20.859375 82.882813-20.406250Q82.671875-19.953125 82.671875-19.203125L82.671875-3.640625Q82.671875-2.890625 82.882813-2.437500Q83.093750-1.984375 83.445313-1.742188Q83.796875-1.500000 84.281250-1.421875Q84.765625-1.343750 85.296875-1.343750L85.718750-1.343750L85.718750 0L76.406250 0ZM98.328125-3.640625Q98.328125-2.890625 98.539063-2.437500Q98.750000-1.984375 99.101563-1.742188Q99.453125-1.500000 99.937500-1.421875Q100.421875-1.343750 100.953125-1.343750L101.687500-1.343750L101.687500 0L91.734375 0L91.734375-1.343750L92.468750-1.343750Q93-1.343750 93.476563-1.414063Q93.953125-1.484375 94.312500-1.703125Q94.671875-1.921875 94.882813-2.351563Q95.093750-2.781250 95.093750-3.484375L95.093750-21.250000L92.031250-21.250000Q91.328125-21.250000 90.851563-21.039063Q90.375000-20.828125 90.070313-20.468750Q89.765625-20.109375 89.617188-19.632813Q89.468750-19.156250 89.406250-18.625000L89.234375-17.250000L87.578125-17.250000L87.734375-22.843750L105.750000-22.843750L105.906250-17.250000L104.250000-17.250000L104.093750-18.625000Q104.031250-19.156250 103.875000-19.632813Q103.718750-20.109375 103.421875-20.468750Q103.125000-20.828125 102.640625-21.039063Q102.156250-21.250000 101.437500-21.250000L98.328125-21.250000L98.328125-3.640625ZM114.031250-1.593750L120.203125-1.593750Q120.968750-1.593750 121.507813-1.804688Q122.046875-2.015625 122.406250-2.375000Q122.765625-2.734375 122.968750-3.210938Q123.171875-3.687500 123.250000-4.218750L123.468750-5.593750L125.140625-5.593750L124.921875 0L107.765625 0L107.765625-1.343750L108.171875-1.343750Q108.703125-1.343750 109.179688-1.414063Q109.656250-1.484375 110.015625-1.703125Q110.375000-1.921875 110.585938-2.351563Q110.796875-2.781250 110.796875-3.484375L110.796875-19.203125Q110.796875-19.953125 110.593750-20.406250Q110.390625-20.859375 110.031250-21.101563Q109.671875-21.343750 109.195313-21.421875Q108.718750-21.500000 108.171875-21.500000L107.765625-21.500000L107.765625-22.843750L123.890625-22.843750L124.046875-17.250000L122.390625-17.250000L122.234375-18.625000Q122.171875-19.156250 121.992188-19.632813Q121.812500-20.109375 121.476563-20.468750Q121.140625-20.828125 120.632813-21.039063Q120.125000-21.250000 119.406250-21.250000L114.031250-21.250000L114.031250-12.734375L121.750000-12.734375L121.750000-11.171875L114.031250-11.171875L114.031250-1.593750ZM138.578125-23.171875Q140.218750-23.171875 141.429688-22.898438Q142.640625-22.625000 143.445313-22.140625Q144.250000-21.656250 144.648438-21Q145.046875-20.343750 145.046875-19.578125Q145.046875-19.062500 144.835938-18.648438Q144.625000-18.234375 144.250000-17.945313Q143.875000-17.656250 143.367188-17.500000Q142.859375-17.343750 142.265625-17.343750Q142.265625-18.093750 142.070313-18.828125Q141.875000-19.562500 141.429688-20.148438Q140.984375-20.734375 140.273438-21.101563Q139.562500-21.468750 138.515625-21.468750Q136.703125-21.468750 135.437500-20.804688Q134.171875-20.140625 133.375000-18.867188Q132.578125-17.593750 132.218750-15.726563Q131.859375-13.859375 131.859375-11.453125Q131.859375-9.312500 132.234375-7.531250Q132.609375-5.750000 133.421875-4.476563Q134.234375-3.203125 135.492188-2.500000Q136.750000-1.796875 138.515625-1.796875Q139.687500-1.796875 140.585938-2.023438Q141.484375-2.250000 142.171875-2.625000Q142.859375-3 143.382813-3.492188Q143.906250-3.984375 144.312500-4.515625Q144.578125-4.343750 144.750000-4.046875Q144.921875-3.750000 144.921875-3.265625Q144.921875-2.656250 144.507813-2.023438Q144.093750-1.390625 143.250000-0.875000Q142.406250-0.359375 141.109375-0.023438Q139.812500 0.312500 138.031250 0.312500Q135.640625 0.312500 133.828125-0.531250Q132.015625-1.375000 130.789063-2.921875Q129.562500-4.468750 128.937500-6.640625Q128.312500-8.812500 128.312500-11.453125Q128.312500-14.046875 128.968750-16.203125Q129.625000-18.359375 130.914063-19.906250Q132.203125-21.453125 134.125000-22.312500Q136.046875-23.171875 138.578125-23.171875ZM160.968750 0L160.968750-1.343750L161.390625-1.343750Q161.937500-1.343750 162.414063-1.421875Q162.890625-1.500000 163.242188-1.742188Q163.593750-1.984375 163.804688-2.437500Q164.015625-2.890625 164.015625-3.640625L164.015625-11.140625L153.609375-11.140625L153.609375-3.640625Q153.609375-2.890625 153.820313-2.437500Q154.031250-1.984375 154.382813-1.742188Q154.734375-1.500000 155.218750-1.421875Q155.703125-1.343750 156.234375-1.343750L156.656250-1.343750L156.656250 0L147.343750 0L147.343750-1.343750L147.750000-1.343750Q148.296875-1.343750 148.773438-1.421875Q149.250000-1.500000 149.609375-1.742188Q149.968750-1.984375 150.171875-2.437500Q150.375000-2.890625 150.375000-3.640625L150.375000-19.328125Q150.375000-20.031250 150.164063-20.460938Q149.953125-20.890625 149.593750-21.125000Q149.234375-21.359375 148.757813-21.429688Q148.281250-21.500000 147.750000-21.500000L147.343750-21.500000L147.343750-22.843750L156.656250-22.843750L156.656250-21.500000L156.234375-21.500000Q155.703125-21.500000 155.218750-21.421875Q154.734375-21.343750 154.382813-21.101563Q154.031250-20.859375 153.820313-20.406250Q153.609375-19.953125 153.609375-19.203125L153.609375-12.734375L164.015625-12.734375L164.015625-19.203125Q164.015625-19.953125 163.804688-20.406250Q163.593750-20.859375 163.242188-21.101563Q162.890625-21.343750 162.414063-21.421875Q161.937500-21.500000 161.390625-21.500000L160.968750-21.500000L160.968750-22.843750L170.281250-22.843750L170.281250-21.500000L169.875000-21.500000Q169.328125-21.500000 168.851563-21.421875Q168.375000-21.343750 168.015625-21.101563Q167.656250-20.859375 167.453125-20.406250Q167.250000-19.953125 167.250000-19.203125L167.250000-3.484375Q167.250000-2.781250 167.460938-2.351563Q167.671875-1.921875 168.031250-1.703125Q168.390625-1.484375 168.867188-1.414063Q169.343750-1.343750 169.875000-1.343750L170.281250-1.343750L170.281250 0L160.968750 0Z" transform="matrix(1,0,0,1,155,157)" data-str-tmatrix="1,0,0,1,106.1,158.75" data-str-color="rgb(107,89,82)" data-str-text="STEFITECH" data-str-default_text="Enter Text" data-str-fontsize="32" data-str-font_family="Droid Serif" data-str-hastextedit="true" data-str-fonticons="true" data-str-bold="false" data-str-italic="false" data-str-data="" data-str-letter_spacing="0" data-str-use_path="false" data-str-txt_dy="0" data-lyt_name="line_1"/>
  </g>
  <g id="surface4">
    <text style="fill:rgb(5,5,5)" font-family="Unica One" font-size="20" transform="matrix(1,0,0,1,206,182.5)" xml:space="preserve"><![CDATA[SYSTEMS]]></text>
  </g>
</svg>